<mxfile host="app.diagrams.net" agent="Mozilla/5.0 (Windows NT 10.0; Win64; x64) AppleWebKit/537.36 (KHTML, like Gecko) Chrome/130.0.0.0 Safari/537.36" version="24.8.2">
  <diagram name="第 1 页" id="pNE-IuITs1aVS37UrQAU">
    <mxGraphModel dx="2305" dy="1002" grid="0" gridSize="10" guides="1" tooltips="1" connect="1" arrows="1" fold="1" page="0" pageScale="1" pageWidth="1200" pageHeight="1920" math="0" shadow="0">
      <root>
        <mxCell id="0" />
        <mxCell id="1" parent="0" />
        <mxCell id="nB4OXl1XGSPuqhfGVAhm-1" value="&lt;font style=&quot;font-size: 18px;&quot;&gt;基于Qwen-2的中医调理建议生成系统&lt;/font&gt;" style="rounded=0;whiteSpace=wrap;html=1;fontStyle=1;fontSize=18;" vertex="1" parent="1">
          <mxGeometry x="-561.5" y="-118" width="269" height="60" as="geometry" />
        </mxCell>
        <mxCell id="nB4OXl1XGSPuqhfGVAhm-2" value="健康数据管理" style="rounded=0;whiteSpace=wrap;html=1;fontSize=18;fontStyle=1" vertex="1" parent="1">
          <mxGeometry x="-880" y="26" width="120" height="42" as="geometry" />
        </mxCell>
        <mxCell id="nB4OXl1XGSPuqhfGVAhm-5" value="&lt;font style=&quot;font-size: 18px;&quot;&gt;健康数据录入&lt;/font&gt;" style="rounded=0;whiteSpace=wrap;html=1;align=center;textDirection=vertical-rl;fontSize=18;fontStyle=1" vertex="1" parent="1">
          <mxGeometry x="-914" y="128" width="44" height="164" as="geometry" />
        </mxCell>
        <mxCell id="nB4OXl1XGSPuqhfGVAhm-6" value="历史数据查询" style="rounded=0;whiteSpace=wrap;html=1;align=center;textDirection=vertical-rl;fontSize=18;fontStyle=1" vertex="1" parent="1">
          <mxGeometry x="-841" y="128" width="44" height="164" as="geometry" />
        </mxCell>
        <mxCell id="nB4OXl1XGSPuqhfGVAhm-7" value="数据更新与删除" style="rounded=0;whiteSpace=wrap;html=1;align=center;textDirection=vertical-rl;fontSize=18;fontStyle=1" vertex="1" parent="1">
          <mxGeometry x="-767" y="127" width="44" height="164" as="geometry" />
        </mxCell>
        <mxCell id="nB4OXl1XGSPuqhfGVAhm-8" value="调理报告" style="rounded=0;whiteSpace=wrap;html=1;fontSize=18;fontStyle=1" vertex="1" parent="1">
          <mxGeometry x="-624" y="26" width="120" height="40" as="geometry" />
        </mxCell>
        <mxCell id="nB4OXl1XGSPuqhfGVAhm-9" value="调理方案生成" style="rounded=0;whiteSpace=wrap;html=1;align=center;textDirection=vertical-rl;fontSize=18;fontStyle=1" vertex="1" parent="1">
          <mxGeometry x="-663" y="127" width="44" height="164" as="geometry" />
        </mxCell>
        <mxCell id="nB4OXl1XGSPuqhfGVAhm-10" value="调理方案展示" style="rounded=0;whiteSpace=wrap;html=1;align=center;textDirection=vertical-rl;fontSize=18;fontStyle=1" vertex="1" parent="1">
          <mxGeometry x="-587" y="128" width="44" height="164" as="geometry" />
        </mxCell>
        <mxCell id="nB4OXl1XGSPuqhfGVAhm-11" value="调理方案下载" style="rounded=0;whiteSpace=wrap;html=1;align=center;textDirection=vertical-rl;fontSize=18;fontStyle=1" vertex="1" parent="1">
          <mxGeometry x="-509" y="128" width="44" height="164" as="geometry" />
        </mxCell>
        <mxCell id="nB4OXl1XGSPuqhfGVAhm-18" value="通知与提醒" style="rounded=0;whiteSpace=wrap;html=1;fontSize=18;fontStyle=1" vertex="1" parent="1">
          <mxGeometry x="-361" y="26" width="120" height="41" as="geometry" />
        </mxCell>
        <mxCell id="nB4OXl1XGSPuqhfGVAhm-19" value="健康提醒" style="rounded=0;whiteSpace=wrap;html=1;align=center;textDirection=vertical-rl;fontSize=18;fontStyle=1" vertex="1" parent="1">
          <mxGeometry x="-399.5" y="128" width="44" height="164" as="geometry" />
        </mxCell>
        <mxCell id="nB4OXl1XGSPuqhfGVAhm-23" value="反馈与更新" style="rounded=0;whiteSpace=wrap;html=1;fontSize=18;fontStyle=1" vertex="1" parent="1">
          <mxGeometry x="-106" y="26" width="120" height="41" as="geometry" />
        </mxCell>
        <mxCell id="nB4OXl1XGSPuqhfGVAhm-24" value="模型更新" style="rounded=0;whiteSpace=wrap;html=1;align=center;textDirection=vertical-rl;fontSize=18;fontStyle=1" vertex="1" parent="1">
          <mxGeometry x="-145.5" y="128" width="44" height="164" as="geometry" />
        </mxCell>
        <mxCell id="nB4OXl1XGSPuqhfGVAhm-25" value="方案更新通知" style="rounded=0;whiteSpace=wrap;html=1;align=center;textDirection=vertical-rl;fontSize=18;fontStyle=1" vertex="1" parent="1">
          <mxGeometry x="-246.5" y="128" width="44" height="164" as="geometry" />
        </mxCell>
        <mxCell id="nB4OXl1XGSPuqhfGVAhm-26" value="用户反馈收集" style="rounded=0;whiteSpace=wrap;html=1;align=center;textDirection=vertical-rl;fontSize=18;fontStyle=1" vertex="1" parent="1">
          <mxGeometry x="-70.5" y="128" width="44" height="164" as="geometry" />
        </mxCell>
        <mxCell id="nB4OXl1XGSPuqhfGVAhm-27" value="日志记录监控" style="rounded=0;whiteSpace=wrap;html=1;align=center;textDirection=vertical-rl;fontSize=18;fontStyle=1" vertex="1" parent="1">
          <mxGeometry x="9.5" y="128" width="44" height="164" as="geometry" />
        </mxCell>
        <mxCell id="nB4OXl1XGSPuqhfGVAhm-29" value="" style="endArrow=none;html=1;rounded=0;fontSize=12;startSize=8;endSize=8;curved=1;exitX=0.491;exitY=-0.002;exitDx=0;exitDy=0;exitPerimeter=0;fontStyle=1" edge="1" parent="1">
          <mxGeometry width="50" height="50" relative="1" as="geometry">
            <mxPoint x="-819.0799999999999" y="25.915999999999826" as="sourcePoint" />
            <mxPoint x="-819" y="-15" as="targetPoint" />
          </mxGeometry>
        </mxCell>
        <mxCell id="nB4OXl1XGSPuqhfGVAhm-31" value="" style="endArrow=none;html=1;rounded=0;fontSize=12;startSize=8;endSize=8;curved=1;fontStyle=1" edge="1" parent="1">
          <mxGeometry width="50" height="50" relative="1" as="geometry">
            <mxPoint x="-819" y="-15" as="sourcePoint" />
            <mxPoint x="-424" y="-15" as="targetPoint" />
          </mxGeometry>
        </mxCell>
        <mxCell id="nB4OXl1XGSPuqhfGVAhm-32" value="" style="endArrow=none;html=1;rounded=0;fontSize=12;startSize=8;endSize=8;curved=1;fontStyle=1" edge="1" parent="1">
          <mxGeometry width="50" height="50" relative="1" as="geometry">
            <mxPoint x="-425" y="-15" as="sourcePoint" />
            <mxPoint x="-425" y="-58" as="targetPoint" />
          </mxGeometry>
        </mxCell>
        <mxCell id="nB4OXl1XGSPuqhfGVAhm-34" value="" style="endArrow=none;html=1;rounded=0;fontSize=12;startSize=8;endSize=8;curved=1;fontStyle=1" edge="1" parent="1">
          <mxGeometry width="50" height="50" relative="1" as="geometry">
            <mxPoint x="-426" y="-15" as="sourcePoint" />
            <mxPoint x="-45" y="-15" as="targetPoint" />
          </mxGeometry>
        </mxCell>
        <mxCell id="nB4OXl1XGSPuqhfGVAhm-35" value="" style="endArrow=none;html=1;rounded=0;fontSize=12;startSize=8;endSize=8;curved=1;exitX=0.491;exitY=-0.002;exitDx=0;exitDy=0;exitPerimeter=0;fontStyle=1" edge="1" parent="1">
          <mxGeometry width="50" height="50" relative="1" as="geometry">
            <mxPoint x="-564.5" y="26" as="sourcePoint" />
            <mxPoint x="-565" y="-15" as="targetPoint" />
          </mxGeometry>
        </mxCell>
        <mxCell id="nB4OXl1XGSPuqhfGVAhm-36" value="" style="endArrow=none;html=1;rounded=0;fontSize=12;startSize=8;endSize=8;curved=1;exitX=0.491;exitY=-0.002;exitDx=0;exitDy=0;exitPerimeter=0;fontStyle=1" edge="1" parent="1">
          <mxGeometry width="50" height="50" relative="1" as="geometry">
            <mxPoint x="-298.5" y="26" as="sourcePoint" />
            <mxPoint x="-298" y="-15" as="targetPoint" />
          </mxGeometry>
        </mxCell>
        <mxCell id="nB4OXl1XGSPuqhfGVAhm-37" value="" style="endArrow=none;html=1;rounded=0;fontSize=12;startSize=8;endSize=8;curved=1;exitX=0.491;exitY=-0.002;exitDx=0;exitDy=0;exitPerimeter=0;fontStyle=1" edge="1" parent="1">
          <mxGeometry width="50" height="50" relative="1" as="geometry">
            <mxPoint x="-46" y="26" as="sourcePoint" />
            <mxPoint x="-45.5" y="-15" as="targetPoint" />
          </mxGeometry>
        </mxCell>
        <mxCell id="nB4OXl1XGSPuqhfGVAhm-38" value="" style="endArrow=none;html=1;rounded=0;fontSize=12;startSize=8;endSize=8;curved=1;fontStyle=1" edge="1" parent="1">
          <mxGeometry width="50" height="50" relative="1" as="geometry">
            <mxPoint x="-893" y="94" as="sourcePoint" />
            <mxPoint x="-741" y="94" as="targetPoint" />
          </mxGeometry>
        </mxCell>
        <mxCell id="nB4OXl1XGSPuqhfGVAhm-41" value="" style="endArrow=none;html=1;rounded=0;fontSize=12;startSize=8;endSize=8;curved=1;exitX=0.5;exitY=0;exitDx=0;exitDy=0;fontStyle=1" edge="1" parent="1" source="nB4OXl1XGSPuqhfGVAhm-6">
          <mxGeometry width="50" height="50" relative="1" as="geometry">
            <mxPoint x="-819.53" y="135" as="sourcePoint" />
            <mxPoint x="-819.03" y="94" as="targetPoint" />
          </mxGeometry>
        </mxCell>
        <mxCell id="nB4OXl1XGSPuqhfGVAhm-42" value="" style="endArrow=none;html=1;rounded=0;fontSize=12;startSize=8;endSize=8;curved=1;exitX=0.5;exitY=0;exitDx=0;exitDy=0;fontStyle=1" edge="1" parent="1">
          <mxGeometry width="50" height="50" relative="1" as="geometry">
            <mxPoint x="-892.97" y="128" as="sourcePoint" />
            <mxPoint x="-893" y="94" as="targetPoint" />
          </mxGeometry>
        </mxCell>
        <mxCell id="nB4OXl1XGSPuqhfGVAhm-43" value="" style="endArrow=none;html=1;rounded=0;fontSize=12;startSize=8;endSize=8;curved=1;exitX=0.5;exitY=0;exitDx=0;exitDy=0;fontStyle=1" edge="1" parent="1">
          <mxGeometry width="50" height="50" relative="1" as="geometry">
            <mxPoint x="-741.1800000000001" y="128" as="sourcePoint" />
            <mxPoint x="-741.21" y="94" as="targetPoint" />
          </mxGeometry>
        </mxCell>
        <mxCell id="nB4OXl1XGSPuqhfGVAhm-44" value="" style="endArrow=none;html=1;rounded=0;fontSize=12;startSize=8;endSize=8;curved=1;entryX=0.506;entryY=1.003;entryDx=0;entryDy=0;entryPerimeter=0;fontStyle=1" edge="1" parent="1">
          <mxGeometry width="50" height="50" relative="1" as="geometry">
            <mxPoint x="-819.21" y="94.71" as="sourcePoint" />
            <mxPoint x="-819.2800000000001" y="68.12599999999998" as="targetPoint" />
          </mxGeometry>
        </mxCell>
        <mxCell id="nB4OXl1XGSPuqhfGVAhm-45" value="" style="endArrow=none;html=1;rounded=0;fontSize=12;startSize=8;endSize=8;curved=1;fontStyle=1" edge="1" parent="1">
          <mxGeometry width="50" height="50" relative="1" as="geometry">
            <mxPoint x="-639.92" y="93" as="sourcePoint" />
            <mxPoint x="-484.91999999999996" y="93" as="targetPoint" />
          </mxGeometry>
        </mxCell>
        <mxCell id="nB4OXl1XGSPuqhfGVAhm-46" value="" style="endArrow=none;html=1;rounded=0;fontSize=12;startSize=8;endSize=8;curved=1;exitX=0.5;exitY=0;exitDx=0;exitDy=0;fontStyle=1" edge="1" parent="1">
          <mxGeometry width="50" height="50" relative="1" as="geometry">
            <mxPoint x="-565.92" y="127" as="sourcePoint" />
            <mxPoint x="-565.9499999999999" y="93" as="targetPoint" />
          </mxGeometry>
        </mxCell>
        <mxCell id="nB4OXl1XGSPuqhfGVAhm-47" value="" style="endArrow=none;html=1;rounded=0;fontSize=12;startSize=8;endSize=8;curved=1;exitX=0.5;exitY=0;exitDx=0;exitDy=0;fontStyle=1" edge="1" parent="1">
          <mxGeometry width="50" height="50" relative="1" as="geometry">
            <mxPoint x="-639.89" y="127" as="sourcePoint" />
            <mxPoint x="-639.92" y="93" as="targetPoint" />
          </mxGeometry>
        </mxCell>
        <mxCell id="nB4OXl1XGSPuqhfGVAhm-48" value="" style="endArrow=none;html=1;rounded=0;fontSize=12;startSize=8;endSize=8;curved=1;exitX=0.5;exitY=0;exitDx=0;exitDy=0;fontStyle=1" edge="1" parent="1">
          <mxGeometry width="50" height="50" relative="1" as="geometry">
            <mxPoint x="-485.1" y="127" as="sourcePoint" />
            <mxPoint x="-485.13" y="93" as="targetPoint" />
          </mxGeometry>
        </mxCell>
        <mxCell id="nB4OXl1XGSPuqhfGVAhm-49" value="" style="endArrow=none;html=1;rounded=0;fontSize=12;startSize=8;endSize=8;curved=1;entryX=0.523;entryY=0.984;entryDx=0;entryDy=0;entryPerimeter=0;fontStyle=1" edge="1" parent="1">
          <mxGeometry width="50" height="50" relative="1" as="geometry">
            <mxPoint x="-566.13" y="93.71" as="sourcePoint" />
            <mxPoint x="-566.24" y="65.36000000000013" as="targetPoint" />
          </mxGeometry>
        </mxCell>
        <mxCell id="nB4OXl1XGSPuqhfGVAhm-50" value="" style="endArrow=none;html=1;rounded=0;fontSize=12;startSize=8;endSize=8;curved=1;fontStyle=1" edge="1" parent="1">
          <mxGeometry width="50" height="50" relative="1" as="geometry">
            <mxPoint x="-378.49999999999994" y="94" as="sourcePoint" />
            <mxPoint x="-223.49999999999994" y="94" as="targetPoint" />
          </mxGeometry>
        </mxCell>
        <mxCell id="nB4OXl1XGSPuqhfGVAhm-52" value="" style="endArrow=none;html=1;rounded=0;fontSize=12;startSize=8;endSize=8;curved=1;exitX=0.5;exitY=0;exitDx=0;exitDy=0;fontStyle=1" edge="1" parent="1">
          <mxGeometry width="50" height="50" relative="1" as="geometry">
            <mxPoint x="-378.46999999999997" y="128" as="sourcePoint" />
            <mxPoint x="-378.49999999999994" y="94" as="targetPoint" />
          </mxGeometry>
        </mxCell>
        <mxCell id="nB4OXl1XGSPuqhfGVAhm-53" value="" style="endArrow=none;html=1;rounded=0;fontSize=12;startSize=8;endSize=8;curved=1;exitX=0.5;exitY=0;exitDx=0;exitDy=0;fontStyle=1" edge="1" parent="1">
          <mxGeometry width="50" height="50" relative="1" as="geometry">
            <mxPoint x="-223.68" y="128" as="sourcePoint" />
            <mxPoint x="-223.70999999999998" y="94" as="targetPoint" />
          </mxGeometry>
        </mxCell>
        <mxCell id="nB4OXl1XGSPuqhfGVAhm-54" value="" style="endArrow=none;html=1;rounded=0;fontSize=12;startSize=8;endSize=8;curved=1;entryX=0.523;entryY=0.984;entryDx=0;entryDy=0;entryPerimeter=0;fontStyle=1" edge="1" parent="1">
          <mxGeometry width="50" height="50" relative="1" as="geometry">
            <mxPoint x="-300.21" y="94.71" as="sourcePoint" />
            <mxPoint x="-300.08" y="66" as="targetPoint" />
          </mxGeometry>
        </mxCell>
        <mxCell id="nB4OXl1XGSPuqhfGVAhm-55" value="" style="endArrow=none;html=1;rounded=0;fontSize=12;startSize=8;endSize=8;curved=1;fontStyle=1" edge="1" parent="1">
          <mxGeometry width="50" height="50" relative="1" as="geometry">
            <mxPoint x="-122.49999999999994" y="95" as="sourcePoint" />
            <mxPoint x="32.50000000000006" y="95" as="targetPoint" />
          </mxGeometry>
        </mxCell>
        <mxCell id="nB4OXl1XGSPuqhfGVAhm-56" value="" style="endArrow=none;html=1;rounded=0;fontSize=12;startSize=8;endSize=8;curved=1;exitX=0.5;exitY=0;exitDx=0;exitDy=0;fontStyle=1" edge="1" parent="1">
          <mxGeometry width="50" height="50" relative="1" as="geometry">
            <mxPoint x="-48.49999999999994" y="129" as="sourcePoint" />
            <mxPoint x="-48.529999999999916" y="95" as="targetPoint" />
          </mxGeometry>
        </mxCell>
        <mxCell id="nB4OXl1XGSPuqhfGVAhm-57" value="" style="endArrow=none;html=1;rounded=0;fontSize=12;startSize=8;endSize=8;curved=1;exitX=0.5;exitY=0;exitDx=0;exitDy=0;fontStyle=1" edge="1" parent="1">
          <mxGeometry width="50" height="50" relative="1" as="geometry">
            <mxPoint x="-122.46999999999997" y="129" as="sourcePoint" />
            <mxPoint x="-122.49999999999994" y="95" as="targetPoint" />
          </mxGeometry>
        </mxCell>
        <mxCell id="nB4OXl1XGSPuqhfGVAhm-58" value="" style="endArrow=none;html=1;rounded=0;fontSize=12;startSize=8;endSize=8;curved=1;exitX=0.5;exitY=0;exitDx=0;exitDy=0;fontStyle=1" edge="1" parent="1">
          <mxGeometry width="50" height="50" relative="1" as="geometry">
            <mxPoint x="32.31999999999999" y="129" as="sourcePoint" />
            <mxPoint x="32.29000000000002" y="95" as="targetPoint" />
          </mxGeometry>
        </mxCell>
        <mxCell id="nB4OXl1XGSPuqhfGVAhm-59" value="" style="endArrow=none;html=1;rounded=0;fontSize=12;startSize=8;endSize=8;curved=1;entryX=0.574;entryY=0.991;entryDx=0;entryDy=0;entryPerimeter=0;fontStyle=1" edge="1" parent="1">
          <mxGeometry width="50" height="50" relative="1" as="geometry">
            <mxPoint x="-48.20999999999998" y="96.71" as="sourcePoint" />
            <mxPoint x="-48.11999999999989" y="66.63099999999986" as="targetPoint" />
          </mxGeometry>
        </mxCell>
      </root>
    </mxGraphModel>
  </diagram>
</mxfile>
